<?xml version="1.0" encoding="UTF-8"?>
<svg id="Layer_1" data-name="Layer 1" xmlns="http://www.w3.org/2000/svg" viewBox="0 0 202.17 181.52">
  <defs>
    <style>
      .cls-1 {
        fill: #ffd155;
      }
    </style>
  </defs>
  <path class="cls-1" d="M64.84,10.66s20.14,5.75,41.24,15.23c0,0,22.84,9.69,41.37,27.17,2,1.88,5.66,5.54,5.62,10.36-.03,4.22-2.89,7.58-6.17,10.61-10.36,9.55-24.42,15.23-33.15,18.16L53.29,15.02s5.8-5.8,11.55-4.36Z"/>
  <path class="cls-1" d="M166.51,165.55s-52.75-20.14-138.59,0c-2.4.96-2.88-3.84,6.71-7.19,9.59-3.36,62.18-34.31,56.59-66.18-4.33-24.68-22.7-51.8-39.01-69.28-.78-.84-1.44-1.53-1.91-2.01.41-2.38,1-4.05,1.85-4.15.63-.07,1.19.74,1.35.95,2.4,3.36,115.41,146.9,115.41,146.9-.05.15-.23.62-.72.92-.78.47-1.62.07-1.68.04Z"/>
</svg>